<svg xmlns="http://www.w3.org/2000/svg" fill="none" viewBox="0 0 181 155"><circle cx="90.5" cy="77.5" r="63" stroke="#CBA727" stroke-opacity=".3"/><g filter="url(#a)" shape-rendering="crispEdges"><rect width="100" height="80" x="18" y="25" fill="#fff" rx="6"/><rect width="101" height="81" x="17.5" y="24.5" stroke="#000" stroke-opacity=".04" rx="6.5"/></g><rect width="31" height="4" x="26" y="33" fill="#000" fill-opacity=".04" rx="2"/><rect width="84" height="2" x="26" y="41" fill="#000" fill-opacity=".04" rx="1"/><rect width="84" height="2" x="26" y="45" fill="#000" fill-opacity=".04" rx="1"/><rect width="84" height="2" x="26" y="49" fill="#000" fill-opacity=".04" rx="1"/><rect width="84" height="2" x="26" y="53" fill="#000" fill-opacity=".04" rx="1"/><rect width="84" height="2" x="26" y="57" fill="#000" fill-opacity=".04" rx="1"/><rect width="84" height="2" x="26" y="61" fill="#000" fill-opacity=".04" rx="1"/><rect width="84" height="2" x="26" y="65" fill="#000" fill-opacity=".04" rx="1"/><rect width="84" height="2" x="26" y="69" fill="#000" fill-opacity=".04" rx="1"/><rect width="84" height="2" x="26" y="73" fill="#000" fill-opacity=".04" rx="1"/><rect width="84" height="2" x="26" y="77" fill="#000" fill-opacity=".04" rx="1"/><rect width="84" height="2" x="26" y="81" fill="#000" fill-opacity=".04" rx="1"/><path fill="#000" fill-opacity=".04" d="M18 87h100v12a6 6 0 0 1-6 6H24a6 6 0 0 1-6-6V87Z" opacity=".3"/><g filter="url(#b)" shape-rendering="crispEdges"><rect width="100" height="80" x="63" y="50" fill="#fff" rx="6"/><rect width="101" height="81" x="62.5" y="49.5" stroke="#000" stroke-opacity=".04" rx="6.5"/></g><path fill="#000" fill-opacity=".04" d="M63 112h100v12a6 6 0 0 1-6 6H69a6 6 0 0 1-6-6v-12Z" opacity=".3"/><rect width="31" height="4" x="71" y="58" fill="#000" fill-opacity=".04" rx="2"/><rect width="84" height="2" x="71" y="66" fill="#000" fill-opacity=".04" rx="1"/><rect width="84" height="2" x="71" y="70" fill="#000" fill-opacity=".04" rx="1"/><rect width="84" height="2" x="71" y="74" fill="#000" fill-opacity=".04" rx="1"/><rect width="84" height="2" x="71" y="78" fill="#000" fill-opacity=".04" rx="1"/><rect width="84" height="2" x="71" y="82" fill="#000" fill-opacity=".04" rx="1"/><rect width="84" height="2" x="71" y="86" fill="#000" fill-opacity=".04" rx="1"/><rect width="84" height="2" x="71" y="90" fill="#000" fill-opacity=".04" rx="1"/><rect width="84" height="2" x="71" y="94" fill="#000" fill-opacity=".04" rx="1"/><rect width="84" height="2" x="71" y="98" fill="#000" fill-opacity=".04" rx="1"/><rect width="84" height="2" x="71" y="102" fill="#000" fill-opacity=".04" rx="1"/><rect width="84" height="2" x="71" y="106" fill="#000" fill-opacity=".04" rx="1"/><defs><filter id="a" width="126" height="106" x="5" y="16" color-interpolation-filters="sRGB" filterUnits="userSpaceOnUse"><feFlood flood-opacity="0" result="BackgroundImageFix"/><feColorMatrix in="SourceAlpha" result="hardAlpha" values="0 0 0 0 0 0 0 0 0 0 0 0 0 0 0 0 0 0 127 0"/><feOffset dy="4"/><feGaussianBlur stdDeviation="6"/><feComposite in2="hardAlpha" operator="out"/><feColorMatrix values="0 0 0 0 0 0 0 0 0 0 0 0 0 0 0 0 0 0 0.03 0"/><feBlend in2="BackgroundImageFix" result="effect1_dropShadow_2038_12808"/><feBlend in="SourceGraphic" in2="effect1_dropShadow_2038_12808" result="shape"/></filter><filter id="b" width="126" height="106" x="50" y="41" color-interpolation-filters="sRGB" filterUnits="userSpaceOnUse"><feFlood flood-opacity="0" result="BackgroundImageFix"/><feColorMatrix in="SourceAlpha" result="hardAlpha" values="0 0 0 0 0 0 0 0 0 0 0 0 0 0 0 0 0 0 127 0"/><feOffset dy="4"/><feGaussianBlur stdDeviation="6"/><feComposite in2="hardAlpha" operator="out"/><feColorMatrix values="0 0 0 0 0 0 0 0 0 0 0 0 0 0 0 0 0 0 0.03 0"/><feBlend in2="BackgroundImageFix" result="effect1_dropShadow_2038_12808"/><feBlend in="SourceGraphic" in2="effect1_dropShadow_2038_12808" result="shape"/></filter></defs></svg>