<svg width="2000" height="1000" xmlns="http://www.w3.org/2000/svg"><defs><linearGradient id="a" gradientTransform="rotate(90)"><stop offset="5%" stop-color="#1900ff"/><stop offset="95%" stop-color="#523fff"/></linearGradient></defs><path fill="#fff" d="M0 0h2000v1000H0z"/><path d="M0 500c53.638 9.164 107.276 18.328 169 29 61.724 10.672 131.533 22.852 198 32 66.467 9.148 129.593 15.264 188-7 58.407-22.264 112.094-72.907 174-69 61.906 3.907 132.03 62.363 193 53s112.782-86.545 168-81c55.218 5.545 113.84 93.817 177 98 63.16 4.183 130.86-75.722 195-107 64.14-31.278 124.718-13.93 181-2s108.268 18.443 176 15c67.732-3.443 151.21-16.84 184-12 32.79 4.84 14.895 27.92 37 51l-40 500H0Z" fill="url(#a)"/></svg>