<?xml version="1.0" encoding="UTF-8"?>
<svg width="1200pt" height="1200pt" version="1.1" viewBox="0 0 1200 1200" xmlns="http://www.w3.org/2000/svg">
 <g>
  <path d="m816.82 476.89c0 33.996-27.551 61.551-61.547 61.551-33.996 0-61.551-27.555-61.551-61.551 0-33.992 27.555-61.551 61.551-61.551 33.996 0 61.547 27.559 61.547 61.551z"/>
  <path d="m580.22 150.87c12.242-7.0664 27.32-7.0664 39.559 0l359.29 207.44c12.246 7.0664 19.781 20.125 19.781 34.258v414.87c0 14.137-7.5352 27.199-19.781 34.262l-359.29 207.43c-12.238 7.0703-27.316 7.0703-39.559 0l-359.29-207.43c-12.242-7.0625-19.781-20.125-19.781-34.262v-414.87c0-14.133 7.5391-27.191 19.781-34.258zm-299.95 585.77v47.953l319.73 184.6 253.48-146.34-94.316-117.32-79.188 65.617c-20.176 16.715-50.199 13.305-66.113-7.5039l-142.24-186.01zm0-102.87 167.19-138.93c20.168-16.758 50.23-13.367 66.16 7.4609l142.27 186.04 78.555-65.086c19.832-16.434 49.277-13.453 65.418 6.6211l119.87 149.11v-363.58l-319.73-184.6-319.73 184.6z" fill-rule="evenodd"/>
 </g>
</svg>
