<?xml version="1.0" encoding="UTF-8"?>
<svg width="128pt" height="128pt" version="1.1" viewBox="0 0 128 128" xmlns="http://www.w3.org/2000/svg">
 <g>
  <path d="m64 8c-30.93 0-56 25.07-56 56s25.07 56 56 56c30.914-0.03125 55.969-25.086 56-56 0-30.93-25.07-56-56-56zm0 104c-26.508 0-48-21.492-48-48s21.492-48 48-48c26.496 0.027344 47.973 21.504 48 48 0 26.508-21.492 48-48 48z"/>
  <path d="m64 24c-22.094 0-40 17.906-40 40s17.906 40 40 40c22.078-0.023438 39.977-17.922 40-40 0-22.094-17.906-40-40-40zm0 72c-17.672 0-32-14.328-32-32s14.328-32 32-32c17.664 0.019531 31.98 14.336 32 32 0 17.672-14.328 32-32 32z"/>
  <path d="m80.992 58.91-4.5977-2.5c-2.0195-1.0977-3.6875-2.7539-4.8008-4.7656l-2.5156-4.5898c-0.53125-0.96484-1.3242-1.7617-2.2891-2.2891-2.8047-1.5391-6.3281-0.51562-7.8711 2.2891l-2.5195 4.5859c-1.1094 2.0156-2.7734 3.668-4.793 4.7656l-4.6016 2.5039c-0.98438 0.53516-1.793 1.3438-2.3281 2.3242-1.5273 2.8125-0.48438 6.3281 2.3281 7.8555l4.5938 2.5c2.0234 1.0977 3.6875 2.7461 4.8008 4.7656l2.5195 4.5898c1.0195 1.8516 2.9688 3.0039 5.0781 3.0039 2.1172 0 4.0586-1.1562 5.0781-3.0078l2.5195-4.5859c1.1094-2.0117 2.7734-3.6641 4.793-4.7617l4.6016-2.5039c0.98438-0.53516 1.793-1.3438 2.3281-2.3281 1.5273-2.8047 0.48828-6.3203-2.3242-7.8516zm-8.4492 5.6562c-3.3594 1.8281-6.125 4.5859-7.9648 7.9375l-0.58984 1.0703-0.58594-1.0703c-1.8438-3.3555-4.6094-6.1094-7.9727-7.9375l-1.0312-0.56641 1.0469-0.56641c3.3594-1.8281 6.125-4.5859 7.9648-7.9375l0.58984-1.0703 0.59766 1.0703c1.8438 3.3516 4.6094 6.1094 7.9688 7.9375l1.0352 0.56641z"/>
 </g>
</svg>
